<svg width="700" height="700" viewBox="0 0 700 700" fill="none" xmlns="http://www.w3.org/2000/svg">
<path fill-rule="evenodd" clip-rule="evenodd" d="M684 2.68414e-05C692.837 2.71965e-05 700 7.16348 700 16L700 683.968C700 698.133 682.95 705.312 672.818 695.412L430.587 458.727C425.535 453.791 424.318 446.124 427.593 439.865L514.378 274.009C522.644 258.212 502.775 242.774 489.51 254.688L397.897 336.968L368.691 311.355C360.864 304.491 353.579 300.373 346.838 299.001C339.968 297.516 333.326 300.431 326.912 307.745C320.385 315.187 318.491 322.265 321.229 328.979C323.726 335.709 329.145 342.731 337.485 350.045L360.684 370.39L350 379.985L350 379.985L350 379.986L337.273 392.421L308.691 367.355C300.864 360.491 293.579 356.373 286.838 355.001C279.968 353.516 273.326 356.431 266.912 363.745C260.385 371.187 258.491 378.265 261.229 384.979C263.726 391.709 269.145 398.731 277.485 406.045L301.645 427.233L289.811 438.796C283.758 444.711 274.145 444.888 267.877 439.2L139.983 323.14C126.77 311.149 106.813 326.515 115.027 342.355L201.548 509.181C204.79 515.433 203.563 523.069 198.526 527.991L27.1819 695.412C17.0502 705.312 -6.19184e-07 698.133 0 683.968L2.91978e-05 16C2.95841e-05 7.16344 7.16346 -3.55069e-07 16 0L684 2.68414e-05Z" fill="white"/>
</svg>
